<?xml version="1.0" encoding="UTF-8"?>
<svg width="81px" height="27px" viewBox="0 0 81 27" version="1.1" xmlns="http://www.w3.org/2000/svg" xmlns:xlink="http://www.w3.org/1999/xlink">
    <title>app-store</title>
    <g id="Page-1" stroke="none" stroke-width="1" fill="none" fill-rule="evenodd">
        <g id="footer" transform="translate(-1613.000000, -724.000000)" fill-rule="nonzero">
            <g id="Group-5" transform="translate(1534.000000, 217.000000)">
                <g id="app-store" transform="translate(79.000000, 507.000000)">
                    <g id="Group">
                        <g id="Path" stroke="#FFFFFF">
                            <path d="M5.70026025,26.409375 C5.49460125,26.409375 5.29391025,26.4067425 5.0898645,26.4021525 C4.6671672,26.396645 4.24545784,26.3598469 3.828195,26.29206 C3.43911845,26.2250515 3.06220786,26.1004035 2.7098955,25.9222275 C2.36081365,25.7455278 2.04242294,25.5138342 1.7669205,25.2360225 C1.48743022,24.9614833 1.2547418,24.6430647 1.07807625,24.293385 C0.899464001,23.9414327 0.775853695,23.5641822 0.71155125,23.174775 C0.642110192,22.7563525 0.604539702,22.3332614 0.59916375,21.90915 C0.59488425,21.7667925 0.58928175,21.2928075 0.58928175,21.2928075 L0.58928175,5.6999295 C0.58928175,5.6999295 0.59524875,5.23322775 0.5991975,5.096115 C0.604344933,4.67267538 0.64169695,4.25024084 0.71093025,3.83246775 C0.775351388,3.4419938 0.899057388,3.06365549 1.07776575,2.71055025 C1.25378201,2.3611121 1.48517859,2.0424557 1.76298525,1.766934 C2.04047966,1.48879446 2.35988884,1.25590778 2.70956475,1.07676675 C3.0610674,0.899163182 3.43726568,0.775394468 3.82555575,0.70960725 C4.24418895,0.641139394 4.66736232,0.604122357 5.091525,0.59886675 L5.700591,0.590625 L75.0693622,0.590625 L75.6857047,0.5991975 C76.1060092,0.604191958 76.5253385,0.640878754 76.9401247,0.70894575 C77.3323456,0.775558171 77.7124645,0.900190486 78.0679823,1.0787445 C78.7685097,1.43976558 79.3385155,2.01093499 79.6981072,2.71219725 C79.8739632,3.06286486 79.9957611,3.43811706 80.0593673,3.82521825 C80.1294249,4.24641918 80.1686342,4.67217338 80.1766822,5.099085 C80.1786397,5.290245 80.1786397,5.49558 80.1786397,5.6999295 C80.1839722,5.9530545 80.1839722,6.19398225 80.1839722,6.43688775 L80.1839722,20.56374 C80.1839722,20.8089675 80.1839722,21.048255 80.1786397,21.2895 C80.1786397,21.50901 80.1786397,21.7100925 80.1760072,21.9170475 C80.1681334,22.3363411 80.1295779,22.7544959 80.0606497,23.16816 C79.9976653,23.5603763 79.874728,23.9405714 79.6961497,24.29541 C79.5182353,24.6412943 79.2868832,24.9569547 79.0106197,25.2307575 C78.7348695,25.5100621 78.4159169,25.7431113 78.0660247,25.920945 C77.7114918,26.1004907 77.3319325,26.2255997 76.9401247,26.29206 C76.5228935,26.3602087 76.1011436,26.3970091 75.6784147,26.4021525 C75.4807072,26.4067425 75.2736847,26.409375 75.0726697,26.409375 L74.3409697,26.410725 L5.70026025,26.409375 Z"></path>
                        </g>
                        <g id="_Group_" transform="translate(6.075000, 4.725000)" fill="#FFFFFF">
                            <g id="_Group_2">
                                <g id="_Group_3">
                                    <path d="M10.7977793,8.70031125 C10.8131221,7.50950765 11.4374093,6.40956773 12.4519208,5.785857 C11.8090038,4.86765855 10.7707654,4.3063721 9.6504075,4.271319 C8.4716955,4.1475915 7.32899475,4.97664 6.7283325,4.97664 C6.11606025,4.97664 5.19126975,4.283604 4.19541525,4.30409025 C2.88513841,4.34642291 1.69321723,5.07333193 1.0557405,6.21886275 C-0.30175875,8.56921275 0.7108155,12.023451 2.01120975,13.9233128 C2.66182875,14.853618 3.4222095,15.8927873 4.41716625,15.855939 C5.39078625,15.8155538 5.7544155,15.2350943 6.92965125,15.2350943 C8.09398575,15.2350943 8.4351375,15.855939 9.4502835,15.8325098 C10.4950283,15.8155538 11.1532545,14.8980735 11.7810585,13.9589595 C12.2485276,13.2960848 12.6082442,12.5634637 12.8468835,11.7882337 C11.6060466,11.2634209 10.7992233,10.0475687 10.7977793,8.70031125 Z" id="_Path_"></path>
                                    <path d="M8.88037425,3.02184675 C9.45001416,2.33802127 9.73065537,1.4590767 9.66269925,0.571671 C8.79242413,0.663076077 7.98853353,1.07901062 7.411203,1.7365995 C6.84111487,2.38540011 6.55230981,3.23420542 6.6083985,4.096062 C7.49033886,4.10514031 8.32772211,3.70921626 8.88037425,3.02184675 Z" id="_Path_2"></path>
                                </g>
                            </g>
                            <g id="Group" transform="translate(16.875000, 6.750000)">
                                <path d="M5.6037015,6.84426375 L2.4086565,6.84426375 L1.6413705,9.1098675 L0.2880765,9.1098675 L3.3143715,0.7277175 L4.7203965,0.7277175 L7.7466915,9.1098675 L6.370326,9.1098675 L5.6037015,6.84426375 Z M2.7395685,5.7988035 L5.2721685,5.7988035 L4.023675,2.12189625 L3.98871,2.12189625 L2.7395685,5.7988035 Z" id="Shape"></path>
                                <path d="M14.28246,6.05456775 C14.28246,7.95366675 13.2660045,9.1738035 11.732094,9.1738035 C10.9392291,9.21527862 10.1923936,8.79999572 9.80926875,8.1046035 L9.78024375,8.1046035 L9.78024375,11.13156 L8.52582375,11.13156 L8.52582375,2.9986065 L9.740034,2.9986065 L9.740034,4.015062 L9.7631055,4.015062 C10.1632511,3.32402934 10.9108919,2.90892521 11.7090022,2.93466375 C13.2600713,2.9346705 14.28246,4.1607405 14.28246,6.05456775 Z M12.993102,6.05456775 C12.993102,4.81729275 12.3536947,4.003857 11.3781105,4.003857 C10.4196645,4.003857 9.7749855,4.83442425 9.7749855,6.05456775 C9.7749855,7.28591625 10.4196645,8.11055025 11.3781105,8.11055025 C12.3537015,8.11055025 12.993102,7.3030545 12.993102,6.05456775 L12.993102,6.05456775 Z" id="Shape"></path>
                                <path d="M21.0090577,6.05456775 C21.0090577,7.95366675 19.9922715,9.1738035 18.458361,9.1738035 C17.6654961,9.21527862 16.9186606,8.79999572 16.5355358,8.1046035 L16.5065108,8.1046035 L16.5065108,11.13156 L15.2520908,11.13156 L15.2520908,2.9986065 L16.466301,2.9986065 L16.466301,4.015062 L16.4893725,4.015062 C16.8895181,3.32402934 17.6371589,2.90892521 18.4352692,2.93466375 C19.986345,2.9346705 21.0090577,4.1607405 21.0090577,6.05456775 Z M19.7193758,6.05456775 C19.7193758,4.81729275 19.0799685,4.003857 18.1043842,4.003857 C17.1459382,4.003857 16.5012592,4.83442425 16.5012592,6.05456775 C16.5012592,7.28591625 17.1459382,8.11055025 18.1043842,8.11055025 C19.0799685,8.11055025 19.7193758,7.3030545 19.7193758,6.05456775 L19.7193758,6.05456775 Z" id="Shape"></path>
                                <path d="M25.4539058,6.77438775 C25.5468533,7.6056165 26.3543558,8.15138775 27.457812,8.15138775 C28.5151388,8.15138775 29.27583,7.6055895 29.27583,6.8560965 C29.27583,6.20548425 28.8170393,5.8159215 27.7307145,5.5489455 L26.6443898,5.287248 C25.1052075,4.9154715 24.3906525,4.19564475 24.3906525,3.0275775 C24.3906525,1.581336 25.6510057,0.587952 27.440019,0.587952 C29.211894,0.587952 30.4261042,1.581336 30.4669755,3.0275775 L29.2006755,3.0275775 C29.124873,2.191077 28.4333895,1.68615 27.4228672,1.68615 C26.412345,1.68615 25.7208682,2.197017 25.7208682,2.94057 C25.7208682,3.53317275 26.1625208,3.88187775 27.2429122,4.14882 L28.1664202,4.3755795 C29.886219,4.782294 30.6001125,5.4731295 30.6001125,6.699186 C30.6001125,8.267373 29.3516257,9.249552 27.3648375,9.249552 C25.5059482,9.249552 24.2508735,8.2904445 24.1697925,6.774327 L25.4539058,6.77438775 Z" id="Path"></path>
                                <path d="M33.3086918,1.552365 L33.3086918,2.9986065 L34.4708258,2.9986065 L34.4708258,3.9919905 L33.3086918,3.9919905 L33.3086918,7.36105725 C33.3086918,7.8844455 33.5413845,8.12834325 34.0522448,8.12834325 C34.190209,8.12593752 34.3279499,8.11624903 34.4648925,8.09931825 L34.4648925,9.086769 C34.2352091,9.1296852 34.0017553,9.14912178 33.7681373,9.1447785 C32.5308623,9.1447785 32.0483385,8.6800545 32.0483385,7.494849 L32.0483385,3.9919905 L31.1597685,3.9919905 L31.1597685,2.9986065 L32.048325,2.9986065 L32.048325,1.552365 L33.3086918,1.552365 Z" id="Path"></path>
                                <path d="M35.1432,6.05456775 C35.1432,4.1317425 36.2756678,2.9234655 38.0416162,2.9234655 C39.8134912,2.9234655 40.9406872,4.1317155 40.9406872,6.05456775 C40.9406872,7.9826715 39.8194245,9.18567 38.0416162,9.18567 C36.264456,9.18567 35.1432,7.98266475 35.1432,6.05456775 Z M39.6625343,6.05456775 C39.6625343,4.73555025 39.058065,3.95705925 38.0416095,3.95705925 C37.025154,3.95705925 36.4206848,4.7414835 36.4206848,6.05456775 C36.4206848,7.378857 37.025154,8.1514215 38.0416095,8.1514215 C39.058065,8.1514215 39.6625343,7.378857 39.6625343,6.05456775 L39.6625343,6.05456775 Z" id="Shape"></path>
                                <path d="M41.9749223,2.9986065 L43.1713395,2.9986065 L43.1713395,4.0387815 L43.2003645,4.0387815 C43.3672083,3.36917367 43.980754,2.9083263 44.6703323,2.934657 C44.814893,2.93415226 44.9590549,2.94985175 45.1001183,2.9814615 L45.1001183,4.1548005 C44.9176192,4.09903424 44.7272412,4.07343012 44.5364933,4.078998 C44.1677058,4.06403692 43.8108014,4.21101094 43.5594925,4.48132903 C43.3081836,4.75164712 43.1875777,5.11830275 43.2293423,5.485023 L43.2293423,9.109854 L41.9749223,9.109854 L41.9749223,2.9986065 Z" id="Path"></path>
                                <path d="M50.883741,7.31491425 C50.714991,8.4243105 49.6345928,9.18566325 48.252294,9.18566325 C46.4744858,9.18566325 45.3710228,7.9945245 45.3710228,6.08356575 C45.3710228,4.16667375 46.480419,2.92345875 48.199563,2.92345875 C49.890357,2.92345875 50.953617,4.08493125 50.953617,5.93788725 L50.953617,6.36767325 L46.6373093,6.36767325 L46.6373093,6.44347575 C46.59701,6.8984471 46.7541123,7.34880562 47.0686544,7.6799947 C47.3831966,8.01118378 47.8248621,8.19128247 48.2813055,8.1744795 C48.890049,8.23151674 49.4639751,7.88195993 49.692609,7.3149075 L50.883741,7.31491425 Z M46.6432306,5.49096975 L49.6985355,5.49096975 C49.7213002,5.08214081 49.5724836,4.68235558 49.2879398,4.38792629 C49.0033959,4.09349701 48.608924,3.93111928 48.199563,3.93991425 C47.7869637,3.937452 47.3904747,4.09990587 47.0982232,4.39116744 C46.8059717,4.68242901 46.6421735,5.07836447 46.6432306,5.49096975 L46.6432306,5.49096975 Z" id="Shape"></path>
                            </g>
                        </g>
                    </g>
                    <g id="_Group_4" transform="translate(24.000000, 4.000000)" fill="#FFFFFF">
                        <g id="Group">
                            <path d="M1.89758471,0.626571429 C2.42730597,0.578043584 2.94615623,0.835326367 3.31132544,1.32760441 C3.67649464,1.81988246 3.84949194,2.49526696 3.782701,3.16786286 C3.782701,4.80179143 3.09094829,5.74100571 1.89758471,5.74100571 L0.450474857,5.74100571 L0.450474857,0.626571429 L1.89758471,0.626571429 Z M1.07272129,5.01771429 L1.82807843,5.01771429 C2.20664459,5.04660172 2.57525524,4.85619343 2.831561,4.49935868 C3.08786677,4.14252392 3.20458059,3.65725236 3.14929543,3.17828571 C3.20055834,2.70130674 3.08216371,2.22003961 2.82649344,1.86611484 C2.57082317,1.51219007 2.20463281,1.3226454 1.82807843,1.34932286 L1.07272129,1.34932286 L1.07272129,5.01771429 Z" id="Shape"></path>
                            <path d="M4.48559943,3.80943429 C4.4337565,3.11762147 4.69361046,2.44809594 5.15617927,2.08165489 C5.61874807,1.71521383 6.20405493,1.71521383 6.66662373,2.08165489 C7.12919254,2.44809594 7.3890465,3.11762147 7.33720357,3.80943429 C7.39003287,4.50199051 7.1304161,5.17281461 6.66743715,5.54004454 C6.2044582,5.90727447 5.6183448,5.90727447 5.15536585,5.54004454 C4.6923869,5.17281461 4.43277013,4.50199051 4.48559943,3.80943429 Z M6.72347757,3.80943429 C6.72347757,2.97280286 6.42906286,2.48354571 5.91238514,2.48354571 C5.39373343,2.48354571 5.10197086,2.97280286 5.10197086,3.80944286 C5.10197086,4.65277714 5.39375357,5.13826286 5.91238514,5.13826286 C6.42907629,5.13826286 6.72347757,4.64941714 6.72347757,3.80943429 L6.72347757,3.80943429 Z" id="Shape"></path>
                            <polygon id="Path" points="11.1277603 5.74092857 10.5087904 5.74092857 9.88391871 2.89829143 9.83671057 2.89829143 9.21445743 5.74092857 8.60138271 5.74092857 7.76799886 1.88127429 8.37320443 1.88127429 8.91480557 4.82641714 8.95939514 4.82641714 9.58099029 1.88127429 10.15341 1.88127429 10.7750051 4.82641714 10.8222133 4.82641714 11.3611891 1.88127429 11.9578676 1.88127429"></polygon>
                            <path d="M12.6587987,1.88127429 L13.2331857,1.88127429 L13.2331857,2.49441429 L13.2777753,2.49441429 C13.4328315,2.04298109 13.7951532,1.76683498 14.1800074,1.80677143 C14.4779987,1.77817009 14.7700091,1.92410563 14.9735895,2.2033732 C15.17717,2.48264077 15.2702282,2.86493465 15.2264893,3.24231429 L15.2264893,5.74088571 L14.6298109,5.74088571 L14.6298109,3.43359429 C14.6298109,2.81334 14.4186801,2.50488 13.9773971,2.50488 C13.7752742,2.4928621 13.5791193,2.59412792 13.4403581,2.78212867 C13.3015969,2.97012943 13.2340687,3.22611515 13.2554771,3.48297429 L13.2554771,5.74092857 L12.6587987,5.74092857 L12.6587987,1.88127429 Z" id="Path"></path>
                            <polygon id="Path" points="16.1772456 0.374571429 16.773924 0.374571429 16.773924 5.74092 16.1772456 5.74092"></polygon>
                            <path d="M17.6033733,3.80943429 C17.5515702,3.11757621 17.8114651,2.44803374 18.2740683,2.08158703 C18.7366714,1.71514032 19.3220083,1.71514032 19.7846115,2.08158703 C20.2472146,2.44803374 20.5071095,3.11757621 20.4553064,3.80943429 C20.5080686,4.5020153 20.2484043,5.17282045 19.7854024,5.54003421 C19.3224004,5.90724796 18.7362793,5.90724796 18.2732774,5.54003421 C17.8102754,5.17282045 17.5506111,4.5020153 17.6033733,3.80943429 L17.6033733,3.80943429 Z M19.8412514,3.80943429 C19.8412514,2.97280286 19.5468367,2.48354571 19.030159,2.48354571 C18.5115073,2.48354571 18.2197447,2.97280286 18.2197447,3.80944286 C18.2197447,4.65277714 18.5115274,5.13826286 19.030159,5.13826286 C19.5468434,5.13826286 19.8412514,4.64941714 19.8412514,3.80943429 L19.8412514,3.80943429 Z" id="Shape"></path>
                            <path d="M21.0834614,4.64941714 C21.0834614,3.95466 21.488682,3.55413429 22.20797,3.49721143 L23.0269316,3.43694571 L23.0269316,3.1038 C23.0269316,2.69615143 22.8158009,2.46596571 22.4079617,2.46596571 C22.0748727,2.46596571 21.8440691,2.62207714 21.7778394,2.89495714 L21.2001759,2.89495714 C21.261155,2.23200857 21.7496461,1.80678857 22.435497,1.80678857 C23.1934794,1.80678857 23.6209914,2.28850286 23.6209914,3.1038 L23.6209914,5.74093714 L23.0466044,5.74093714 L23.0466044,5.19852857 L22.9993963,5.19852857 C22.8043118,5.59463686 22.457388,5.82613991 22.0912623,5.80452857 C21.8345994,5.83861013 21.5786206,5.73249485 21.3866086,5.51241638 C21.1945966,5.29233791 21.0844727,4.97883712 21.0834614,4.64941714 L21.0834614,4.64941714 Z M23.0269316,4.31961429 L23.0269316,3.99693429 L22.288622,4.0572 C21.8722557,4.09277143 21.6834164,4.27357714 21.6834164,4.61383714 C21.6834164,4.96121143 21.9194639,5.16336 22.2440593,5.16336 C22.4362128,5.18819131 22.6280334,5.11240719 22.7756094,4.95335622 C22.9231854,4.79430525 23.0138801,4.56560662 23.0269316,4.31961429 Z" id="Shape"></path>
                            <path d="M24.4051931,3.80943429 C24.4051931,2.58984857 24.8963096,1.81724571 25.6601871,1.81724571 C26.0459073,1.79455726 26.4071699,2.05840531 26.587336,2.49438857 L26.6319256,2.49438857 L26.6319256,0.374571429 L27.228604,0.374571429 L27.228604,5.74092 L26.6568423,5.74092 L26.6568423,5.13112286 L26.6096341,5.13112286 C26.4158492,5.56348884 26.0501358,5.82287698 25.6601939,5.80452857 C24.8910657,5.80457143 24.4051931,5.03195143 24.4051931,3.80943429 Z M25.0215646,3.80943429 C25.0215646,4.62807429 25.3238417,5.12068286 25.8293804,5.12068286 C26.3322804,5.12068286 26.6430914,4.62096857 26.6430914,3.81278571 C26.6430914,3.00837429 26.3290173,2.50153714 25.8293804,2.50153714 C25.3270981,2.50153714 25.0215444,2.99748857 25.0215444,3.80943429 L25.0215646,3.80943429 Z" id="Shape"></path>
                            <path d="M29.6972857,3.80943429 C29.6454428,3.11762147 29.9052967,2.44809594 30.3678656,2.08165489 C30.8304344,1.71521383 31.4157412,1.71521383 31.87831,2.08165489 C32.3408788,2.44809594 32.6007328,3.11762147 32.5488899,3.80943429 C32.6017192,4.50199051 32.3421024,5.17281461 31.8791234,5.54004454 C31.4161445,5.90727447 30.8300311,5.90727447 30.3670521,5.54004454 C29.9040732,5.17281461 29.6444564,4.50199051 29.6972857,3.80943429 L29.6972857,3.80943429 Z M31.9351571,3.80943429 C31.9351571,2.97280286 31.6407491,2.48354571 31.1240714,2.48354571 C30.6054197,2.48354571 30.3136571,2.97280286 30.3136571,3.80944286 C30.3136571,4.65277714 30.6054399,5.13826286 31.1240714,5.13826286 C31.6407559,5.13826286 31.9351571,4.64941714 31.9351571,3.80943429 Z" id="Shape"></path>
                            <path d="M33.3494879,1.88127429 L33.9238749,1.88127429 L33.9238749,2.49441429 L33.9684644,2.49441429 C34.1235207,2.04298109 34.4858423,1.76683498 34.8706966,1.80677143 C35.1686878,1.77817009 35.4606982,1.92410563 35.6642787,2.2033732 C35.8678591,2.48264077 35.9609173,2.86493465 35.9171784,3.24231429 L35.9171784,5.74088571 L35.3205,5.74088571 L35.3205,3.43359429 C35.3205,2.81334 35.1093693,2.50488 34.6680863,2.50488 C34.4659633,2.4928621 34.2698084,2.59412792 34.1310472,2.78212867 C33.9922861,2.97012943 33.9247578,3.22611515 33.9461663,3.48297429 L33.9461663,5.74092857 L33.3494879,5.74092857 L33.3494879,1.88127429 Z" id="Path"></path>
                            <path d="M39.2887503,0.92034 L39.2887503,1.89885429 L39.9437893,1.89885429 L39.9437893,2.54046 L39.2887503,2.54046 L39.2887503,4.52511429 C39.2887503,4.92941143 39.4192357,5.10644571 39.7162623,5.10644571 C39.7923053,5.10613503 39.868272,5.10026542 39.9437893,5.08886571 L39.9437893,5.72334857 C39.8366357,5.74782062 39.7280698,5.76084004 39.6192207,5.76227143 C38.9556613,5.76227143 38.6914139,5.46427714 38.6914139,4.72014 L38.6914139,2.54042571 L38.2114499,2.54042571 L38.2114499,1.89882 L38.6914139,1.89882 L38.6914139,0.92034 L39.2887503,0.92034 Z" id="Path"></path>
                            <path d="M40.7588096,0.374571429 L41.3502441,0.374571429 L41.3502441,2.50152857 L41.3974523,2.50152857 C41.5599566,2.04614448 41.9286195,1.76964646 42.3193237,1.81012286 C42.6156229,1.78954053 42.9036803,1.9386889 43.1050357,2.2169433 C43.306391,2.49519771 43.4000719,2.87357626 43.3605617,3.24901714 L43.3605617,5.74092857 L42.7632857,5.74092857 L42.7632857,3.43692857 C42.7632857,2.82043714 42.5383571,2.50821429 42.1167739,2.50821429 C41.9091876,2.48648029 41.7046705,2.58282082 41.5578984,2.77148015 C41.4111263,2.96013947 41.3370653,3.22188027 41.3555149,3.48672857 L41.3555149,5.74092857 L40.7588364,5.74092857 L40.7588096,0.374571429 Z" id="Path"></path>
                            <path d="M46.8396964,4.69879714 C46.6723812,5.4268367 46.120495,5.89723117 45.5296251,5.81542286 C45.1264752,5.82900874 44.7390257,5.61568346 44.4700761,5.23204728 C44.2011266,4.84841111 44.0778666,4.33324795 44.133,3.82324286 C44.079331,3.31182041 44.2021291,2.79583177 44.469581,2.40895453 C44.7370329,2.0220773 45.1228214,1.80238007 45.5269999,1.80678 C46.3682529,1.80678 46.8757589,2.54049429 46.8757589,3.75249429 L46.8757589,4.01828571 L44.7408241,4.01828571 L44.7408241,4.06097143 C44.7219315,4.34737726 44.7985541,4.6306695 44.951848,4.84117774 C45.1051419,5.05168599 45.3208833,5.16987765 45.5460147,5.16668571 C45.837933,5.21142401 46.1220954,5.02657118 46.2653094,4.69877143 L46.8396964,4.69879714 Z M44.7408107,3.45493714 L46.2679146,3.45493714 C46.2831244,3.19299466 46.2109764,2.93503292 46.0692502,2.74462208 C45.9275241,2.55421124 45.7294003,2.44905962 45.5237031,2.45508 C45.3152192,2.45173621 45.1145131,2.5560182 44.9671133,2.74427047 C44.8197135,2.93252274 44.7381137,3.18878892 44.7408241,3.45493714 L44.7408107,3.45493714 Z" id="Shape"></path>
                        </g>
                    </g>
                </g>
            </g>
        </g>
    </g>
</svg>
