<?xml version="1.0" encoding="UTF-8"?>
<svg width="91px" height="28px" viewBox="0 0 91 28" version="1.1" xmlns="http://www.w3.org/2000/svg" xmlns:xlink="http://www.w3.org/1999/xlink">
    <title>google-play</title>
    <defs>
        <linearGradient x1="60.9903275%" y1="4.94615078%" x2="26.5360307%" y2="71.8787395%" id="linearGradient-1">
            <stop stop-color="#00A0FF" offset="0%"></stop>
            <stop stop-color="#00A1FF" offset="1%"></stop>
            <stop stop-color="#00BEFF" offset="26%"></stop>
            <stop stop-color="#00D2FF" offset="51%"></stop>
            <stop stop-color="#00DFFF" offset="76%"></stop>
            <stop stop-color="#00E3FF" offset="100%"></stop>
        </linearGradient>
        <linearGradient x1="107.684729%" y1="50%" x2="-130.640394%" y2="50%" id="linearGradient-2">
            <stop stop-color="#FFE000" offset="0%"></stop>
            <stop stop-color="#FFBD00" offset="41%"></stop>
            <stop stop-color="#FFA500" offset="78%"></stop>
            <stop stop-color="#FF9C00" offset="100%"></stop>
        </linearGradient>
        <linearGradient x1="86.2709832%" y1="30.8725537%" x2="-50.1798561%" y2="136.108936%" id="linearGradient-3">
            <stop stop-color="#FF3A44" offset="0%"></stop>
            <stop stop-color="#C31162" offset="100%"></stop>
        </linearGradient>
        <linearGradient x1="-18.82494%" y1="-11.9103989%" x2="42.0863309%" y2="35.0790955%" id="linearGradient-4">
            <stop stop-color="#32A071" offset="0%"></stop>
            <stop stop-color="#2DA771" offset="7%"></stop>
            <stop stop-color="#15CF74" offset="48%"></stop>
            <stop stop-color="#06E775" offset="80%"></stop>
            <stop stop-color="#00F076" offset="100%"></stop>
        </linearGradient>
    </defs>
    <g id="Page-1" stroke="none" stroke-width="1" fill="none" fill-rule="evenodd">
        <g id="footer" transform="translate(-1718.000000, -723.000000)" fill-rule="nonzero">
            <g id="Group-5" transform="translate(1534.000000, 217.000000)">
                <g id="google-play" transform="translate(185.000000, 507.000000)">
                    <rect id="Rectangle" stroke="#FFFFFF" x="0" y="0" width="89.1" height="26.4" rx="3.3"></rect>
                    <path d="M31.2972,6.7584 C31.3190953,7.24748962 31.1402896,7.72430472 30.8022,8.0784 C30.4229783,8.46991672 29.8948204,8.68117989 29.3502,8.6592 C28.8027821,8.67139982 28.2747518,8.45636486 27.8916,8.0652 C27.4963126,7.68160161 27.2786825,7.15067967 27.291,6.6 C27.2768288,6.04704455 27.4946061,5.51337056 27.8916,5.1282 C28.4928011,4.54074378 29.3878981,4.37161206 30.162,4.6992 C30.3999972,4.7970321 30.6122787,4.9483391 30.7824,5.1414 L30.4326,5.4912 C30.1668537,5.17106738 29.7657279,4.99496336 29.3502,5.016 C28.9336406,5.01395656 28.5342284,5.18171786 28.2440638,5.48059983 C27.9538992,5.77948181 27.7980307,6.18368348 27.8124,6.6 C27.8035573,7.2291052 28.1740645,7.80175408 28.751536,8.05151048 C29.3290074,8.30126688 30.0000311,8.17908013 30.4524,7.7418 C30.6559131,7.52140841 30.7751137,7.2362618 30.789,6.9366 L29.3502,6.9366 L29.3502,6.4614 L31.2708,6.4614 C31.2855608,6.55977947 31.2943768,6.6589594 31.2972,6.7584 Z" id="Path" stroke="#FFFFFF" stroke-width="0.55" fill="#FFFFFF"></path>
                    <polygon id="Path" stroke="#FFFFFF" stroke-width="0.55" fill="#FFFFFF" points="34.32 5.1084 32.538 5.1084 32.538 6.3624 34.1616 6.3624 34.1616 6.8376 32.538 6.8376 32.538 8.0916 34.32 8.0916 34.32 8.58 32.0232 8.58 32.0232 4.62 34.32 4.62"></polygon>
                    <polygon id="Path" stroke="#FFFFFF" stroke-width="0.55" fill="#FFFFFF" points="36.4848 8.58 35.9766 8.58 35.9766 5.1084 34.8678 5.1084 34.8678 4.62 37.62 4.62 37.62 5.1084 36.4848 5.1084"></polygon>
                    <polygon id="Path" stroke="#FFFFFF" stroke-width="0.55" fill="#FFFFFF" points="39.5604 8.58 39.5604 4.62 40.0686 4.62 40.0686 8.58"></polygon>
                    <polygon id="Path" stroke="#FFFFFF" stroke-width="0.55" fill="#FFFFFF" points="42.3258 8.58 41.8176 8.58 41.8176 5.1084 40.7088 5.1084 40.7088 4.62 43.428 4.62 43.428 5.1084 42.3258 5.1084"></polygon>
                    <path d="M48.5826,8.0652 C48.1976147,8.45049983 47.6752738,8.66698548 47.1306,8.66698548 C46.5859262,8.66698548 46.0635853,8.45049983 45.6786,8.0652 C45.2905785,7.67821952 45.0802944,7.14772998 45.0978,6.6 C45.0802944,6.05227002 45.2905785,5.52178048 45.6786,5.1348 C46.0557848,4.73812298 46.5834109,4.51987762 47.1306,4.5342 C47.6767219,4.52556097 48.2021558,4.74289952 48.5826,5.1348 C48.9660059,5.52480184 49.1754735,6.05323153 49.1634,6.6 C49.1809056,7.14772998 48.9706215,7.67821952 48.5826,8.0652 L48.5826,8.0652 Z M46.0548,7.7352 C46.3387981,8.02299818 46.72627,8.18500482 47.1306,8.18500482 C47.53493,8.18500482 47.9224019,8.02299818 48.2064,7.7352 C48.5018081,7.43252882 48.6614342,7.02274229 48.6486,6.6 C48.6544658,6.17339184 48.4850814,5.76305204 48.18,5.4648 C47.8960019,5.17700182 47.50853,5.01499518 47.1042,5.01499518 C46.69987,5.01499518 46.3123981,5.17700182 46.0284,5.4648 C45.7426132,5.77178462 45.5927074,6.1810514 45.6126,6.6 C45.5997658,7.02274229 45.7593919,7.43252882 46.0548,7.7352 L46.0548,7.7352 Z" id="Shape" stroke="#FFFFFF" stroke-width="0.55" fill="#FFFFFF"></path>
                    <polygon id="Path" stroke="#FFFFFF" stroke-width="0.55" fill="#FFFFFF" points="49.8828 8.58 49.8828 4.62 50.4966 4.62 52.4238 7.7022 52.4238 7.7022 52.4238 6.9366 52.4238 4.62 52.932 4.62 52.932 8.58 52.404 8.58 50.391 5.3526 50.391 5.3526 50.391 6.1116 50.391 8.58"></polygon>
                    <path d="M44.9724,14.355 C43.4196025,14.3586493 42.163769,15.6203973 42.1674076,17.1731948 C42.171062,18.7259923 43.4328076,19.9818281 44.9856051,19.9781924 C46.5384026,19.9745409 47.7942408,18.7127975 47.7906,17.16 C47.8014722,16.4104867 47.5076129,15.6886684 46.9763284,15.1598724 C46.4450439,14.6310764 45.721854,14.3406091 44.9724,14.355 Z M44.9724,18.8628 C44.2749301,18.9115775 43.6185242,18.5290469 43.3171341,17.8981685 C43.015744,17.26729 43.1306277,16.5162907 43.6068375,16.0043651 C44.0830473,15.4924395 44.823793,15.3236374 45.474784,15.5786948 C46.125775,15.8337523 46.5546965,16.4608286 46.5564,17.16 C46.5778782,17.5973635 46.4217816,18.0248592 46.1235326,18.3454769 C45.8252837,18.6660945 45.4101728,18.8526468 44.9724,18.8628 Z M38.8212,14.355 C37.2684025,14.3586493 36.012569,15.6203973 36.0162076,17.1731948 C36.019862,18.7259923 37.2816076,19.9818281 38.8344051,19.9781924 C40.3872026,19.9745409 41.6430408,18.7127975 41.6394,17.16 C41.6502722,16.4104867 41.3564129,15.6886684 40.8251284,15.1598724 C40.2938439,14.6310764 39.570654,14.3406091 38.8212,14.355 Z M38.8212,18.8628 C38.1237301,18.9115775 37.4673242,18.5290469 37.1659341,17.8981685 C36.864544,17.26729 36.9794277,16.5162907 37.4556375,16.0043651 C37.9318473,15.4924395 38.672593,15.3236374 39.323584,15.5786948 C39.974575,15.8337523 40.4034965,16.4608286 40.4052,17.16 C40.4266782,17.5973635 40.2705816,18.0248592 39.9723326,18.3454769 C39.6740837,18.6660945 39.2589728,18.8526468 38.8212,18.8628 Z M31.5084,15.2196 L31.5084,16.4076 L34.3596,16.4076 C34.3148939,16.9671505 34.0822975,17.4951443 33.6996,17.9058 C33.1212102,18.4950893 32.3201818,18.8116633 31.4952,18.777 C29.7455619,18.777 28.3272,17.3586381 28.3272,15.609 C28.3272,13.8593619 29.7455619,12.441 31.4952,12.441 C32.3006954,12.4290208 33.078471,12.7349143 33.66,13.2924 L34.4982,12.4542 C33.7035472,11.6682418 32.6259374,11.2352948 31.5084,11.253 C29.9105141,11.1908142 28.4066597,12.0078234 27.5892237,13.3821977 C26.7717876,14.7565719 26.7717876,16.4680281 27.5892237,17.8424023 C28.4066597,19.2167766 29.9105141,20.0337858 31.5084,19.9716 C32.6503311,20.017209 33.7573814,19.5729481 34.551,18.7506 C35.2440782,17.9892306 35.6133777,16.9878609 35.5806,15.9588 C35.5829623,15.7111189 35.5630825,15.4637258 35.5212,15.2196 L31.5084,15.2196 Z M61.413,16.1436 C61.0606126,15.1068787 60.1048323,14.395295 59.0106,14.3549949 C58.2808799,14.3535733 57.5831157,14.654249 57.0829904,15.1856321 C56.5828651,15.7170153 56.324991,16.4317053 56.3706,17.16 C56.3590109,18.3973808 57.1633412,19.4947491 58.3468115,19.8561956 C59.5302819,20.2176421 60.8104744,19.7569129 61.4922,18.7242 L60.5352,18.0642 C60.2449102,18.548042 59.7200174,18.8418816 59.1558,18.8364 C58.5702711,18.8605756 58.0301122,18.5223208 57.7962,17.985 L61.5516,16.434 L61.413,16.1436 Z M57.585,17.0808 C57.557979,16.6673123 57.6989693,16.2604179 57.9760307,15.9522958 C58.2530921,15.6441737 58.6427752,15.4609021 59.0568,15.444 C59.4900703,15.4162684 59.8979865,15.6501058 60.093,16.038 L57.585,17.0808 Z M54.5358,19.8 L55.77,19.8 L55.77,11.55 L54.5358,11.55 L54.5358,19.8 Z M52.5162,14.982 L52.47,14.982 C52.0908624,14.5693193 51.55182,14.3407076 50.9916,14.355 C49.4934969,14.4276473 48.3161825,15.6634365 48.3161825,17.1633 C48.3161825,18.6631635 49.4934969,19.8989527 50.9916,19.9716 C51.5581424,19.9829643 52.1002133,19.7409684 52.47,19.3116 L52.5162,19.3116 L52.5162,19.7142 C52.5162,20.79 51.942,21.3642 51.018,21.3642 C50.3867197,21.3503318 49.8262705,20.956714 49.599,20.3676 L48.5298,20.8098 C48.9344785,21.8261931 49.9241062,22.4876949 51.018,22.473 C52.4634,22.473 53.658,21.6216 53.658,19.5492 L53.658,14.52 L52.5162,14.52 L52.5162,14.982 Z M51.0972,18.8628 C50.1996572,18.8068401 49.5003603,18.0625856 49.5003603,17.1633 C49.5003603,16.2640144 50.1996572,15.5197599 51.0972,15.4638 C51.5242335,15.4822284 51.925507,15.6731659 52.2091676,15.9929061 C52.4928283,16.3126464 52.6345889,16.7338132 52.602,17.16 C52.638389,17.5877126 52.4981539,18.0116846 52.2139004,18.3333399 C51.9296468,18.6549952 51.5261409,18.8463091 51.0972,18.8628 L51.0972,18.8628 Z M67.1946,11.55 L64.2378,11.55 L64.2378,19.8 L65.472,19.8 L65.472,16.6716 L67.1946,16.6716 C68.1533714,16.7404801 69.0703028,16.2680159 69.5706859,15.4472822 C70.0710689,14.6265484 70.0710689,13.5950516 69.5706859,12.7743178 C69.0703028,11.9535841 68.1533714,11.4811199 67.1946,11.55 L67.1946,11.55 Z M67.1946,15.51 L65.472,15.51 L65.472,12.6984 L67.221,12.6984 C68.001047,12.6984 68.6334,13.330753 68.6334,14.1108 C68.6334,14.890847 68.001047,15.5232 67.221,15.5232 L67.1946,15.51 Z M74.811,14.3286 C73.8923386,14.2719553 73.0281435,14.7676348 72.6132,15.5892 L73.7022,16.0446 C73.926998,15.6393092 74.3690648,15.4040572 74.8308,15.444 C75.1472885,15.4070364 75.4653594,15.4987603 75.7135687,15.6985687 C75.9617779,15.8983772 76.119317,16.1895194 76.1508,16.5066 L76.1508,16.5858 C75.7539177,16.3771851 75.3121697,16.2684471 74.8638,16.269 C73.689,16.269 72.4878,16.929 72.4878,18.1302 C72.5112754,18.6460437 72.7428957,19.1303276 73.1297319,19.4723854 C73.5165681,19.8144431 74.0255619,19.9850429 74.5404,19.9452 C75.1709717,19.9800796 75.771373,19.6723109 76.1112,19.14 L76.1508,19.14 L76.1508,19.8 L77.3388,19.8 L77.3388,16.6254 C77.3388,15.18 76.2432,14.3418 74.8374,14.3418 L74.811,14.3286 Z M74.6592,18.8496 C74.2566,18.8496 73.6956,18.645 73.6956,18.15 C73.6956,17.49 74.3952,17.2656 75.0156,17.2656 C75.4076677,17.2559257 75.7951463,17.3516557 76.1376,17.5428 C76.0519038,18.2840488 75.4316378,18.847927 74.6856,18.8628 L74.6592,18.8496 Z M81.6684,14.52 L80.256,18.0972 L80.2164,18.0972 L78.7512,14.52 L77.4312,14.52 L79.629,19.5228 L78.375,22.3014 L79.695,22.3014 L83.0412,14.52 L81.6684,14.52 Z M70.5804,19.8 L71.808,19.8 L71.808,11.55 L70.5804,11.55 L70.5804,19.8 Z" id="Shape" fill="#FFFFFF"></path>
                    <path d="M6.8904,4.9764 C6.68001617,5.23647665 6.57622235,5.56672974 6.6,5.9004 L6.6,20.4996 C6.57754282,20.8364503 6.68902971,21.1685389 6.9102,21.4236 L6.9564,21.4764 L15.114,13.299 L15.114,13.101 L6.9366,4.9302 L6.8904,4.9764 Z" id="Path" fill="url(#linearGradient-1)"></path>
                    <path d="M17.82,16.0248 L15.114,13.299 L15.114,13.101 L17.82,10.3752 L17.8794,10.4148 L21.12,12.2496 C22.044,12.771 22.044,13.629 21.12,14.157 L17.8926,15.9918 L17.82,16.0248 Z" id="Path" fill="url(#linearGradient-2)"></path>
                    <path d="M17.8992,15.9918 L15.114,13.2 L6.8904,21.4236 C7.2752015,21.7661207 7.84953838,21.7855428 8.2566,21.4698 L17.8992,15.9918" id="Path" fill="url(#linearGradient-3)"></path>
                    <path d="M17.8992,10.4148 L8.2566,4.9368 C7.85199662,4.61651619 7.2757725,4.63321834 6.8904,4.9764 L15.114,13.2 L17.8992,10.4148 Z" id="Path" fill="url(#linearGradient-4)"></path>
                    <path d="M17.82,15.9258 L8.2566,21.3708 C7.86598178,21.6656083 7.32721822,21.6656083 6.9366,21.3708 L6.9366,21.3708 L6.8904,21.417 L6.8904,21.417 L6.9366,21.4698 L6.9366,21.4698 C7.32721822,21.7646083 7.86598178,21.7646083 8.2566,21.4698 L17.8992,15.9918 L17.82,15.9258 Z" id="Path" fill="#000000" opacity="0.2"></path>
                    <path d="M6.8904,21.3312 C6.67840409,21.0694176 6.57451207,20.7364909 6.6,20.4006 L6.6,20.4996 C6.57754282,20.8364503 6.68902971,21.1685389 6.9102,21.4236 L6.9564,21.3774 L6.8904,21.3312 Z" id="Path" fill="#000000" opacity="0.12"></path>
                    <path d="M21.12,14.058 L17.82,15.9258 L17.8794,15.9918 L21.12,14.1504 C21.509661,13.9856364 21.7780598,13.6210192 21.8196,13.2 L21.8196,13.2 C21.7359174,13.5808862 21.4762427,13.8993551 21.12,14.058 L21.12,14.058 Z" id="Path" fill="#000000" opacity="0.12"></path>
                    <path d="M8.2566,5.0292 L21.12,12.342 C21.4762427,12.5006449 21.7359174,12.8191138 21.8196,13.2 L21.8196,13.2 C21.7780598,12.7789808 21.509661,12.4143636 21.12,12.2496 L8.2566,4.9368 C7.3392,4.4088 6.6,4.8444 6.6,5.9004 L6.6,5.9994 C6.6,4.9434 7.3392,4.5078 8.2566,5.0292 Z" id="Path" fill="#FFFFFF" opacity="0.25"></path>
                </g>
            </g>
        </g>
    </g>
</svg>
