<svg xmlns="http://www.w3.org/2000/svg" viewBox="23 20.3 1270.9 753.7"><path d="M297.2 396.5c0 74.3-60.3 134.6-134.6 134.6S28 470.8 28 396.5s60.3-134.6 134.6-134.6 134.6 60.2 134.6 134.6" fill="none"/><path d="M297.2 396.5c0 74.3-60.3 134.6-134.6 134.6S28 470.8 28 396.5s60.3-134.6 134.6-134.6 134.6 60.2 134.6 134.6z" stroke="#fff" stroke-width="8" fill="none"/><path d="M129.8 479.4l-35.4-27c11.2-12.7 22.9-24.9 35-36.6 4.8-4.7 7.9-7.7 9.1-9-3.9-.6-15.1-3.2-33.6-7.6-13.3-3.2-22.1-5.6-26.3-7.2l14.6-41.6c20.1 8.3 38.2 17.5 54.3 27.5-3.7-25.9-5.6-47-5.6-63.3h41.6c0 11.7-2.1 33-6.3 63.8 3.1-1.3 9.9-4.3 20.4-9.1 14.3-6.4 27.5-11.9 39.6-16.4l12.1 42.4c-17.5 3.9-37.8 7.7-60.8 11.5l28.3 32.1c5.6 6.5 10.1 11.8 13.4 15.9L194 478.5l-31.4-53c-9.6 16.9-20.5 34.9-32.8 53.9m246.3-135.6c-.4 8.2-.8 27.4-.8 29.9-.4 11-.4 56.4 0 85 .4 15.9 4.1 27 20 36 0 0-9 13.1-12.3 18-23.7-13.1-29.4-32.7-29.4-55.6v-64.6c0-19.2-.4-34.8 0-47.4-4.9-1.6-13.5-2-20.4-2.5.4-5.3.4-12.7 1.2-18 5.7 0 18-.8 21.7-1.6-.8-3.7 0-8.6 0-10.2.4-13.1.8-19.2 1.6-28.6 0 0 18.4-6.1 22.1-8.6-.8 9.8-1.6 30.6-2.5 49.5 11-.4 24.5-2 31.1-2 0 0-.4 9.8.4 19.6-4.9-1-26.2 1.1-32.7 1.1m102.6 157c-14.3 0-33.5-10.6-43.7-24.9-11.4-16.4-17.6-38.8-17.6-70.3 0-65.4 26.2-90.4 59.3-90.4 31.5 0 43.3 42.9 45 90-32.3 2.9-72.4 6.1-81.8 5.3 1.2 22.1 3.3 37.2 9.8 49.9 7 12.3 20.9 20.4 30.3 20.4 9.4 0 31.1-4.9 38-9.4 1.2 3.7 4.5 9.4 7.4 13.5-4.2 6.5-34.4 15.9-46.7 15.9m-6.9-165.6c-13.5 0-32.3 19.6-31.1 56 6.5.8 21.7.4 28.6-.8 11.5-1.2 24.1-2.9 29-3.7-3.2-29.9-7.7-51.5-26.5-51.5m141.4 182.7c0-5.7-2.9-29-3.7-37.2-9 9.4-27.8 26.6-48.6 26.6-12.7 0-33.1-16.8-33.1-56.4 0-15.1 8.2-38 24.5-47 27.4-14.7 48.2-19.6 58.1-23.7.4-20.4-1.2-33.5-12.3-38.8-13.1-6.1-24.9-8.2-36-8.2 0 0 1.2-18.4 1.2-22.1 13.9 1.6 43.3 7 53.6 13.9 10.6 6.5 13.9 26.6 13.9 35.2 0 2.9.4 65.4.4 107.5 0 18 2.1 40.1 2.9 45-7 1.5-15.2 3.6-20.9 5.2m-41.3-101.8c-10.6 5.7-23.3 15.5-23.3 29.8 0 28.6 6.9 38.4 19.6 38.4 12.3 0 30.2-16.4 40.9-27.4 1.2-3.7 1.2-48.6 1.2-56.8-5.3 1.7-29.4 11.1-38.4 16m244.9 81c-2.5.4-13.9 2-22.5 2.9.8-12.3 1.2-31.5 1.2-39.7v-92c0-18 .4-27.8-9.4-27.8-11.8 0-36 20.8-41.3 26.6.8 12.3.8 125.1 1.2 130.8h-23.7c1.2-2.9 2-26.2 2-28.2 0-11-1.6-95.3-1.6-105.9 0-24.1-2-26.6-16.8-26.6-11 0-27 7.4-33.5 11 0 9.4-.8 130.8-.8 157-6.5-2-17.6-4.1-20.9-4.1.4-11.1.8-60.9.8-64.6l.4-125.1c6.1 1.2 13.9 3.3 18.4 2.9 0 0 1.2 10.2 2.5 14.7 14.7-7.4 33.1-12.7 47-12.7 8.2 0 17.6 3.7 21.2 16.3.8 2.5 2 9 2 13.1 12.7-11.9 33.5-27 47.8-27 20.4 0 26.2 15.9 26.2 44.6l-.2 133.8zm35.1 9.3c.5-11.6.5-18.5-.3-29.6 25.4 0 40.1-9.1 40.1-21.3 0-14.4-11.9-30.7-20.4-42.6-12.2-15.8-23.8-33.5-23.8-52.5 0-34 24.1-47 72.5-47-.5 8.6-1.4 17.4-.3 26.8-25.7.5-41.5 5.3-41.5 17.1 0 11.6 2.2 14.4 19.1 39.5 11.6 16.6 24.3 35.7 24.3 54.8 0 34.4-16.9 49.3-69.7 54.8m162-9.1c-4.4-16-33.7-83.5-43.7-105.6-.6 7.7-.3 21.3-.3 30.7-.3 28.2.3 76.9.3 76.9-8.3-1.9-20.5-3.3-32.1-4.2 1.1-14.1 4.1-59.5 4.4-95.1.3-31-1.4-69.4-1.6-83.5 8 0 19.4-.8 26.8-2.2 1.4 9.7 30.7 78 44.5 105.9 0-7.5.8-49.8-.3-73.8-.3-9.1-1.1-19.6-2.5-27.1 11.3-.6 20.5-1.6 30.7-3.9v183.9c-10.4-.9-17.6-1.2-26.2-2m119.2 8.3c-1.1-10.2-6.4-27.7-7.8-38.2-.3-1.9-.6-3.9-.6-5.5-6.4.3-29.3 1.4-34.8 1.7-1.4 7.8-6.6 33.2-7.7 41.8-9.4-4.1-20.7-8.3-28.8-10.5 2.8-11.3 21.8-93.2 30.7-150.7 1.4-9.1 3.9-22.4 3.9-27.1 6.6-.8 23.8-1.9 29.9-3 2.2 10 42 172 45.1 184.5-7.5 1.2-21.6 4.5-29.9 7m-28.2-138.8c-1.9 14.1-9.4 62.2-10.8 70.5 5-.8 18.8-.5 24.6-1.4-2.2-10.5-10.8-55.8-13.8-69.1m102.1 61.9c0 20.8.3 48.1 1.9 63.9-12.2 4.4-31.8 8.3-31.8 8.3 0-22.4.8-70.5 0-117.8-.6-23.8-2.5-55.3-4.7-64.2 10.2-2.8 19.4-3.6 27.4-3.9 37.6-1.4 69.1 11.1 69.1 55.3 0 24.1-27.4 55.7-61.9 58.4m-1.7-87.1c.3 7.8.8 20.2 1.1 30.4.3 8 .8 21.8.8 29.6 18-.8 31-16.6 31-32.9 0-20.5-11.6-27.1-32.9-27.1" fill="#fff"/></svg>